<mxfile host="app.diagrams.net" modified="2023-07-18T02:16:40.072Z" agent="Mozilla/5.0 (Windows NT 10.0; Win64; x64) AppleWebKit/537.36 (KHTML, like Gecko) Chrome/113.0.0.0 Safari/537.36" version="21.6.2" etag="AnCcG7H8UBafJjfdUqba" type="github">
  <diagram name="第 1 页" id="Oz-CG2tCobwfuHMmZEPt">
    <mxGraphModel>
      <root>
        <mxCell id="0" />
        <mxCell id="1" parent="0" />
      </root>
    </mxGraphModel>
  </diagram>
</mxfile>
